<svg width="19" height="19" viewBox="0 0 19 19" fill="none" xmlns="http://www.w3.org/2000/svg">
<path d="M9.48 17.46C13.8872 17.46 17.46 13.8872 17.46 9.48C17.46 5.07277 13.8872 1.5 9.48 1.5C5.07277 1.5 1.5 5.07277 1.5 9.48C1.5 13.8872 5.07277 17.46 9.48 17.46Z" stroke="#FF645B" stroke-width="1.5" stroke-miterlimit="10"/>
<path d="M10.15 9.12V13.11C10.15 13.49 9.84004 13.79 9.47004 13.79C9.09004 13.79 8.79004 13.48 8.79004 13.11V9.12C8.79004 8.74 9.10004 8.44 9.47004 8.44C9.85004 8.44 10.15 8.75 10.15 9.12Z" fill="#FF645B"/>
<path d="M9.48012 6.88998C9.95508 6.88998 10.3401 6.50495 10.3401 6.02998C10.3401 5.55502 9.95508 5.16998 9.48012 5.16998C9.00515 5.16998 8.62012 5.55502 8.62012 6.02998C8.62012 6.50495 9.00515 6.88998 9.48012 6.88998Z" fill="#FF645B"/>
</svg>
