<svg width="16" height="20" viewBox="0 0 16 20" fill="none" xmlns="http://www.w3.org/2000/svg">
<path d="M12.9 13.1V8.69999C12.9 5.99999 10.7 3.79999 8 3.79999C5.3 3.79999 3.09998 5.99999 3.09998 8.69999V13.1H2.5C1.6 13.1 1 13.8 1 14.6C1 15.5 1.7 16.1 2.5 16.1H13.5C14.4 16.1 15 15.4 15 14.6C15 13.7 14.3 13.1 13.5 13.1H12.9Z" stroke="#0F0F0F" stroke-miterlimit="10"/>
<path d="M10.7 16.2C10.7 17.7 9.5 18.9 8 18.9C6.5 18.9 5.30005 17.7 5.30005 16.2" stroke="#0F0F0F" stroke-miterlimit="10"/>
<path d="M9.40015 2.49998C9.40015 3.29998 8.80012 3.89997 8.00012 3.89997C7.20012 3.89997 6.6001 3.29998 6.6001 2.49998C6.6001 1.69998 7.20012 1.09998 8.00012 1.09998C8.80012 1.09998 9.40015 1.69998 9.40015 2.49998Z" stroke="#0F0F0F" stroke-miterlimit="10"/>
</svg>
