<svg width="75" height="74" viewBox="0 0 75 74" fill="none" xmlns="http://www.w3.org/2000/svg">
<path d="M74.2089 36.7099C74.2089 56.9793 57.7775 73.4198 37.499 73.4198C17.2204 73.4198 0.789062 56.9793 0.789062 36.7099C0.789062 16.4314 17.2204 0 37.499 0C57.7683 0 74.2089 16.4314 74.2089 36.7099Z" fill="#FEE4E2"/>
<path d="M61.0251 36.7106C61.0251 49.7007 50.4984 60.2367 37.5083 60.246C24.5182 60.246 13.9822 49.7192 13.973 36.7291C13.973 23.739 24.4997 13.203 37.4898 13.1938C50.4799 13.1938 61.0159 23.7206 61.0159 36.7106" fill="#FF645B"/>
<path d="M39.924 37.4032L39.924 30.9089C39.924 29.9296 39.1251 29.1564 38.1715 29.1564C37.1922 29.1564 36.419 29.9554 36.419 30.9089L36.419 37.4032C36.419 38.3826 37.2179 39.1557 38.1715 39.1557C39.1508 39.1557 39.924 38.3568 39.924 37.4032Z" fill="white"/>
<path d="M38.1715 42.3392C39.3956 42.3392 40.3879 43.3315 40.3879 44.5556C40.3879 45.7797 39.3956 46.772 38.1715 46.772C36.9475 46.772 35.9551 45.7797 35.9551 44.5556C35.9551 43.3315 36.9475 42.3392 38.1715 42.3392Z" fill="white"/>
</svg>
