<svg width="20" height="20" viewBox="0 0 20 20" fill="none" xmlns="http://www.w3.org/2000/svg">
<g clip-path="url(#clip0_1_39)">
<path d="M10 18.3333C5.39763 18.3333 1.66667 14.6023 1.66667 10C1.66667 5.39762 5.39763 1.66666 10 1.66666C14.6023 1.66666 18.3333 5.39762 18.3333 10C18.3333 14.6023 14.6023 18.3333 10 18.3333ZM10 16.6667C13.6819 16.6667 16.6667 13.6819 16.6667 10C16.6667 6.3181 13.6819 3.33333 10 3.33333C6.3181 3.33333 3.33334 6.3181 3.33334 10C3.33334 13.6819 6.3181 16.6667 10 16.6667ZM10 8.8215L12.357 6.46446L13.5355 7.64297L11.1785 10L13.5355 12.357L12.357 13.5355L10 11.1785L7.64298 13.5355L6.46447 12.357L8.82151 10L6.46447 7.64297L7.64298 6.46446L10 8.8215Z" fill="#FF645B"/>
</g>
<defs>
<clipPath id="clip0_1_39">
<rect width="20" height="20" fill="white"/>
</clipPath>
</defs>
</svg>
