<svg width="4" height="14" viewBox="0 0 4 14" fill="none" xmlns="http://www.w3.org/2000/svg">
<path d="M3.1001 1.89995C3.1001 2.59995 2.5999 3.09995 1.8999 3.09995C1.1999 3.09995 0.699707 2.59995 0.699707 1.89995C0.699707 1.19995 1.1999 0.699951 1.8999 0.699951C2.4999 0.799951 3.1001 1.29995 3.1001 1.89995Z" fill="#4D4D4D"/>
<path d="M3.1001 6.99992C3.1001 7.69992 2.5999 8.19992 1.8999 8.19992C1.1999 8.19992 0.699707 7.69992 0.699707 6.99992C0.699707 6.29992 1.1999 5.79993 1.8999 5.79993C2.4999 5.79993 3.1001 6.39992 3.1001 6.99992Z" fill="#4D4D4D"/>
<path d="M3.1001 12.1C3.1001 12.8 2.5999 13.3 1.8999 13.3C1.1999 13.3 0.699707 12.8 0.699707 12.1C0.699707 11.4 1.1999 10.9 1.8999 10.9C2.4999 10.9 3.1001 11.4 3.1001 12.1Z" fill="#4D4D4D"/>
</svg>
