<svg width="17" height="16" viewBox="0 0 17 16" fill="none" xmlns="http://www.w3.org/2000/svg">
<path d="M4.59998 1.99998C4.59998 2.99998 3.79995 3.89997 2.69995 3.89997C1.59995 3.89997 0.800049 3.09998 0.800049 1.99998C0.800049 0.999975 1.59995 0.0999756 2.69995 0.0999756C3.79995 0.0999756 4.59998 0.999975 4.59998 1.99998Z" fill="#FF675A"/>
<path d="M10.5 1.99998C10.5 2.99998 9.69998 3.89997 8.59998 3.89997C7.49998 3.89997 6.69995 3.09998 6.69995 1.99998C6.69995 0.999975 7.49998 0.0999756 8.59998 0.0999756C9.69998 0.0999756 10.5 0.999975 10.5 1.99998Z" fill="#00D37B"/>
<path d="M16.5 1.99998C16.5 2.99998 15.7 3.89997 14.6 3.89997C13.5 3.89997 12.7 3.09998 12.7 1.99998C12.7 0.999975 13.5 0.0999756 14.6 0.0999756C15.6 0.0999756 16.5 0.999975 16.5 1.99998Z" fill="#AE4CFF"/>
<path d="M2.69995 9.89998C3.74929 9.89998 4.59998 9.04932 4.59998 7.99998C4.59998 6.95064 3.74929 6.09998 2.69995 6.09998C1.65061 6.09998 0.800049 6.95064 0.800049 7.99998C0.800049 9.04932 1.65061 9.89998 2.69995 9.89998Z" fill="#00D37B"/>
<path d="M8.59998 9.89998C9.64932 9.89998 10.5 9.04932 10.5 7.99998C10.5 6.95064 9.64932 6.09998 8.59998 6.09998C7.55063 6.09998 6.69995 6.95064 6.69995 7.99998C6.69995 9.04932 7.55063 9.89998 8.59998 9.89998Z" fill="#AE4CFF"/>
<path d="M16.5 7.99998C16.5 8.99998 15.7 9.89998 14.6 9.89998C13.6 9.89998 12.7 9.09998 12.7 7.99998C12.7 6.99998 13.5 6.09998 14.6 6.09998C15.7 6.09998 16.5 6.99998 16.5 7.99998Z" fill="#00D37B"/>
<path d="M2.69995 15.9C3.74929 15.9 4.59998 15.0493 4.59998 14C4.59998 12.9506 3.74929 12.1 2.69995 12.1C1.65061 12.1 0.800049 12.9506 0.800049 14C0.800049 15.0493 1.65061 15.9 2.69995 15.9Z" fill="#AE4CFF"/>
<path d="M8.59998 15.9C9.64932 15.9 10.5 15.0493 10.5 14C10.5 12.9506 9.64932 12.1 8.59998 12.1C7.55063 12.1 6.69995 12.9506 6.69995 14C6.69995 15.0493 7.55063 15.9 8.59998 15.9Z" fill="#00D37B"/>
<path d="M16.5 14C16.5 15 15.7 15.9 14.6 15.9C13.6 15.9 12.7 15.1 12.7 14C12.7 13 13.5 12.1 14.6 12.1C15.6 12.1 16.5 12.9 16.5 14Z" fill="#FF675A"/>
</svg>
