<svg width="16" height="16" viewBox="0 0 16 16" fill="none" xmlns="http://www.w3.org/2000/svg">
<path d="M5.70996 3.1C5.70996 4.53597 4.54602 5.7 3.11011 5.7C1.67415 5.7 0.51001 4.53592 0.51001 3.1C0.51001 1.66408 1.67415 0.5 3.11011 0.5C4.54602 0.5 5.70996 1.66403 5.70996 3.1Z" stroke="black"/>
<path d="M15.51 3.1C15.51 4.53592 14.3459 5.7 12.9099 5.7C11.474 5.7 10.3101 4.53597 10.3101 3.1C10.3101 1.66403 11.474 0.5 12.9099 0.5C14.3459 0.5 15.51 1.66408 15.51 3.1Z" stroke="black"/>
<path d="M5.70996 12.8C5.70996 14.236 4.54602 15.4 3.11011 15.4C1.67415 15.4 0.51001 14.2359 0.51001 12.8C0.51001 11.3641 1.67415 10.2 3.11011 10.2C4.54602 10.2 5.70996 11.364 5.70996 12.8Z" stroke="black"/>
<path d="M15.51 12.8C15.51 14.2359 14.3459 15.4 12.9099 15.4C11.474 15.4 10.3101 14.236 10.3101 12.8C10.3101 11.364 11.474 10.2 12.9099 10.2C14.3459 10.2 15.51 11.3641 15.51 12.8Z" stroke="black"/>
</svg>
