<svg width="179" height="36" viewBox="0 0 179 36" fill="none" xmlns="http://www.w3.org/2000/svg">
<path d="M49.7578 23.75V10.126H58.2062V11.8955H51.8133V16.0466H57.6009V17.8095H51.8133V23.75H49.7578ZM64.1285 23.9562C63.1706 23.9562 62.3346 23.7367 61.6206 23.2976C60.9065 22.8586 60.3522 22.2444 59.9575 21.4549C59.5628 20.6655 59.3654 19.7431 59.3654 18.6876C59.3654 17.6276 59.5628 16.7007 59.9575 15.9069C60.3522 15.113 60.9065 14.4966 61.6206 14.0575C62.3346 13.6185 63.1706 13.399 64.1285 13.399C65.0864 13.399 65.9224 13.6185 66.6364 14.0575C67.3504 14.4966 67.9048 15.113 68.2995 15.9069C68.6942 16.7007 68.8916 17.6276 68.8916 18.6876C68.8916 19.7431 68.6942 20.6655 68.2995 21.4549C67.9048 22.2444 67.3504 22.8586 66.6364 23.2976C65.9224 23.7367 65.0864 23.9562 64.1285 23.9562ZM64.1351 22.2865C64.756 22.2865 65.2705 22.1224 65.6785 21.7942C66.0865 21.466 66.3881 21.0292 66.5832 20.4837C66.7828 19.9382 66.8826 19.3373 66.8826 18.6809C66.8826 18.029 66.7828 17.4303 66.5832 16.8848C66.3881 16.3349 66.0865 15.8936 65.6785 15.561C65.2705 15.2283 64.756 15.062 64.1351 15.062C63.5098 15.062 62.9909 15.2283 62.5785 15.561C62.1705 15.8936 61.8667 16.3349 61.6671 16.8848C61.472 17.4303 61.3744 18.029 61.3744 18.6809C61.3744 19.3373 61.472 19.9382 61.6671 20.4837C61.8667 21.0292 62.1705 21.466 62.5785 21.7942C62.9909 22.1224 63.5098 22.2865 64.1351 22.2865ZM71.1118 23.75V13.532H73.0343V15.1552H73.1408C73.327 14.6052 73.6552 14.1728 74.1253 13.858C74.5998 13.5387 75.1365 13.379 75.7352 13.379C75.8593 13.379 76.0057 13.3834 76.1742 13.3923C76.3472 13.4012 76.4824 13.4123 76.58 13.4256V15.3281C76.5002 15.306 76.3583 15.2816 76.1543 15.255C75.9503 15.2239 75.7463 15.2084 75.5422 15.2084C75.0721 15.2084 74.6531 15.3082 74.285 15.5077C73.9213 15.7029 73.633 15.9756 73.4202 16.326C73.2073 16.6719 73.1008 17.0666 73.1008 17.5101V23.75H71.1118ZM83.6747 13.532V15.1286H78.0934V13.532H83.6747ZM79.5902 11.0839H81.5792V20.7498C81.5792 21.1356 81.6369 21.4261 81.7522 21.6212C81.8675 21.812 82.0161 21.9428 82.1979 22.0137C82.3842 22.0803 82.586 22.1135 82.8033 22.1135C82.9629 22.1135 83.1026 22.1024 83.2224 22.0803C83.3421 22.0581 83.4353 22.0403 83.5018 22.027L83.861 23.6702C83.7457 23.7145 83.5816 23.7589 83.3687 23.8032C83.1559 23.852 82.8898 23.8786 82.5704 23.883C82.0471 23.8919 81.5593 23.7988 81.1069 23.6036C80.6546 23.4085 80.2887 23.1069 80.0093 22.6989C79.7299 22.2909 79.5902 21.7787 79.5902 21.1622V11.0839ZM85.875 23.75V13.532H87.8641V23.75H85.875ZM86.8795 11.9554C86.5336 11.9554 86.2364 11.8401 85.9881 11.6095C85.7442 11.3744 85.6222 11.095 85.6222 10.7713C85.6222 10.4431 85.7442 10.1637 85.9881 9.93308C86.2364 9.69803 86.5336 9.58051 86.8795 9.58051C87.2254 9.58051 87.5203 9.69803 87.7643 9.93308C88.0126 10.1637 88.1368 10.4431 88.1368 10.7713C88.1368 11.095 88.0126 11.3744 87.7643 11.6095C87.5203 11.8401 87.2254 11.9554 86.8795 11.9554ZM98.1968 16.0266L96.394 16.3459C96.3186 16.1153 96.1989 15.8958 96.0348 15.6874C95.8751 15.4789 95.6578 15.3082 95.3829 15.1751C95.1079 15.0421 94.7642 14.9756 94.3517 14.9756C93.7885 14.9756 93.3184 15.102 92.9415 15.3547C92.5645 15.6031 92.376 15.9246 92.376 16.3193C92.376 16.6608 92.5024 16.9358 92.7552 17.1442C93.008 17.3527 93.416 17.5234 93.9792 17.6565L95.6024 18.029C96.5426 18.2463 97.2433 18.5811 97.7045 19.0335C98.1658 19.4858 98.3964 20.0735 98.3964 20.7964C98.3964 21.4084 98.219 21.9539 97.8642 22.4328C97.5138 22.9074 97.0238 23.2799 96.394 23.5504C95.7687 23.821 95.0436 23.9562 94.2187 23.9562C93.0745 23.9562 92.141 23.7123 91.4181 23.2245C90.6952 22.7322 90.2517 22.0337 90.0876 21.129L92.0101 20.8363C92.1299 21.3374 92.376 21.7166 92.7485 21.9738C93.1211 22.2266 93.6067 22.353 94.2054 22.353C94.8573 22.353 95.3784 22.2177 95.7687 21.9472C96.159 21.6723 96.3541 21.3374 96.3541 20.9427C96.3541 20.6234 96.2344 20.3551 95.9949 20.1378C95.7598 19.9205 95.3984 19.7564 94.9105 19.6455L93.1809 19.2663C92.2274 19.049 91.5223 18.7031 91.0655 18.2286C90.6131 17.754 90.387 17.1531 90.387 16.4258C90.387 15.8226 90.5555 15.2949 90.8925 14.8425C91.2296 14.3902 91.6952 14.0376 92.2895 13.7848C92.8838 13.5276 93.5646 13.399 94.3318 13.399C95.4361 13.399 96.3053 13.6384 96.9395 14.1174C97.5737 14.5919 97.9928 15.2283 98.1968 16.0266ZM105.701 23.75V10.126H107.756V16.0466H114.548V10.126H116.61V23.75H114.548V17.8095H107.756V23.75H105.701ZM123.748 23.9562C122.791 23.9562 121.955 23.7367 121.241 23.2976C120.527 22.8586 119.972 22.2444 119.577 21.4549C119.183 20.6655 118.985 19.7431 118.985 18.6876C118.985 17.6276 119.183 16.7007 119.577 15.9069C119.972 15.113 120.527 14.4966 121.241 14.0575C121.955 13.6185 122.791 13.399 123.748 13.399C124.706 13.399 125.542 13.6185 126.256 14.0575C126.97 14.4966 127.525 15.113 127.919 15.9069C128.314 16.7007 128.512 17.6276 128.512 18.6876C128.512 19.7431 128.314 20.6655 127.919 21.4549C127.525 22.2444 126.97 22.8586 126.256 23.2976C125.542 23.7367 124.706 23.9562 123.748 23.9562ZM123.755 22.2865C124.376 22.2865 124.89 22.1224 125.298 21.7942C125.706 21.466 126.008 21.0292 126.203 20.4837C126.403 19.9382 126.503 19.3373 126.503 18.6809C126.503 18.029 126.403 17.4303 126.203 16.8848C126.008 16.3349 125.706 15.8936 125.298 15.561C124.89 15.2283 124.376 15.062 123.755 15.062C123.13 15.062 122.611 15.2283 122.198 15.561C121.79 15.8936 121.487 16.3349 121.287 16.8848C121.092 17.4303 120.994 18.029 120.994 18.6809C120.994 19.3373 121.092 19.9382 121.287 20.4837C121.487 21.0292 121.79 21.466 122.198 21.7942C122.611 22.1224 123.13 22.2865 123.755 22.2865ZM138.389 16.0266L136.586 16.3459C136.51 16.1153 136.391 15.8958 136.227 15.6874C136.067 15.4789 135.85 15.3082 135.575 15.1751C135.3 15.0421 134.956 14.9756 134.544 14.9756C133.98 14.9756 133.51 15.102 133.133 15.3547C132.756 15.6031 132.568 15.9246 132.568 16.3193C132.568 16.6608 132.694 16.9358 132.947 17.1442C133.2 17.3527 133.608 17.5234 134.171 17.6565L135.794 18.029C136.734 18.2463 137.435 18.5811 137.896 19.0335C138.358 19.4858 138.588 20.0735 138.588 20.7964C138.588 21.4084 138.411 21.9539 138.056 22.4328C137.706 22.9074 137.216 23.2799 136.586 23.5504C135.96 23.821 135.235 23.9562 134.41 23.9562C133.266 23.9562 132.333 23.7123 131.61 23.2245C130.887 22.7322 130.443 22.0337 130.279 21.129L132.202 20.8363C132.322 21.3374 132.568 21.7166 132.94 21.9738C133.313 22.2266 133.798 22.353 134.397 22.353C135.049 22.353 135.57 22.2177 135.96 21.9472C136.351 21.6723 136.546 21.3374 136.546 20.9427C136.546 20.6234 136.426 20.3551 136.187 20.1378C135.952 19.9205 135.59 19.7564 135.102 19.6455L133.373 19.2663C132.419 19.049 131.714 18.7031 131.257 18.2286C130.805 17.754 130.579 17.1531 130.579 16.4258C130.579 15.8226 130.747 15.2949 131.084 14.8425C131.421 14.3902 131.887 14.0376 132.481 13.7848C133.076 13.5276 133.756 13.399 134.524 13.399C135.628 13.399 136.497 13.6384 137.131 14.1174C137.765 14.5919 138.185 15.2283 138.389 16.0266ZM140.775 27.5818V13.532H142.718V15.1884H142.884C142.999 14.9756 143.166 14.7294 143.383 14.45C143.6 14.1706 143.902 13.9267 144.288 13.7183C144.673 13.5054 145.183 13.399 145.818 13.399C146.642 13.399 147.379 13.6074 148.026 14.0243C148.674 14.4412 149.181 15.0421 149.55 15.8271C149.922 16.612 150.108 17.5567 150.108 18.661C150.108 19.7652 149.924 20.7121 149.556 21.5015C149.188 22.2865 148.683 22.8918 148.039 23.3176C147.396 23.7389 146.662 23.9496 145.838 23.9496C145.217 23.9496 144.709 23.8454 144.314 23.6369C143.924 23.4285 143.618 23.1846 143.396 22.9052C143.174 22.6258 143.004 22.3774 142.884 22.1601H142.764V27.5818H140.775ZM142.724 18.641C142.724 19.3595 142.828 19.9892 143.037 20.5303C143.245 21.0713 143.547 21.4949 143.942 21.8009C144.336 22.1024 144.82 22.2532 145.392 22.2532C145.986 22.2532 146.483 22.0958 146.882 21.7809C147.281 21.4616 147.583 21.0292 147.787 20.4837C147.995 19.9382 148.099 19.324 148.099 18.641C148.099 17.9669 147.997 17.3615 147.793 16.8249C147.594 16.2883 147.292 15.8648 146.889 15.5543C146.489 15.2439 145.991 15.0886 145.392 15.0886C144.815 15.0886 144.327 15.2372 143.928 15.5344C143.534 15.8315 143.234 16.2462 143.03 16.7783C142.826 17.3105 142.724 17.9314 142.724 18.641ZM152.337 23.75V13.532H154.326V23.75H152.337ZM153.341 11.9554C152.995 11.9554 152.698 11.8401 152.45 11.6095C152.206 11.3744 152.084 11.095 152.084 10.7713C152.084 10.4431 152.206 10.1637 152.45 9.93308C152.698 9.69803 152.995 9.58051 153.341 9.58051C153.687 9.58051 153.982 9.69803 154.226 9.93308C154.475 10.1637 154.599 10.4431 154.599 10.7713C154.599 11.095 154.475 11.3744 154.226 11.6095C153.982 11.8401 153.687 11.9554 153.341 11.9554ZM161.772 13.532V15.1286H156.19V13.532H161.772ZM157.687 11.0839H159.676V20.7498C159.676 21.1356 159.734 21.4261 159.849 21.6212C159.964 21.812 160.113 21.9428 160.295 22.0137C160.481 22.0803 160.683 22.1135 160.9 22.1135C161.06 22.1135 161.199 22.1024 161.319 22.0803C161.439 22.0581 161.532 22.0403 161.599 22.027L161.958 23.6702C161.843 23.7145 161.678 23.7589 161.466 23.8032C161.253 23.852 160.987 23.8786 160.667 23.883C160.144 23.8919 159.656 23.7988 159.204 23.6036C158.751 23.4085 158.386 23.1069 158.106 22.6989C157.827 22.2909 157.687 21.7787 157.687 21.1622V11.0839ZM166.945 23.9762C166.298 23.9762 165.713 23.8564 165.189 23.617C164.666 23.373 164.251 23.0205 163.945 22.5592C163.644 22.098 163.493 21.5326 163.493 20.8629C163.493 20.2863 163.604 19.8118 163.826 19.4393C164.047 19.0667 164.347 18.7718 164.724 18.5545C165.101 18.3372 165.522 18.1731 165.988 18.0622C166.453 17.9514 166.928 17.8671 167.411 17.8095C168.023 17.7385 168.52 17.6808 168.901 17.6365C169.283 17.5877 169.56 17.5101 169.733 17.4037C169.906 17.2972 169.992 17.1243 169.992 16.8848V16.8382C169.992 16.2572 169.828 15.8071 169.5 15.4878C169.176 15.1685 168.693 15.0088 168.05 15.0088C167.38 15.0088 166.852 15.1574 166.466 15.4545C166.085 15.7472 165.821 16.0732 165.675 16.4324L163.806 16.0067C164.027 15.3858 164.351 14.8846 164.777 14.5032C165.207 14.1174 165.701 13.838 166.26 13.665C166.819 13.4877 167.407 13.399 168.023 13.399C168.431 13.399 168.864 13.4477 169.32 13.5453C169.782 13.6384 170.212 13.8114 170.611 14.0642C171.014 14.317 171.345 14.6784 171.602 15.1485C171.859 15.6142 171.988 16.2195 171.988 16.9646V23.75H170.045V22.353H169.966C169.837 22.6102 169.644 22.863 169.387 23.1114C169.13 23.3597 168.799 23.566 168.396 23.73C167.992 23.8941 167.509 23.9762 166.945 23.9762ZM167.378 22.3796C167.928 22.3796 168.398 22.271 168.788 22.0537C169.183 21.8363 169.482 21.5525 169.686 21.2022C169.895 20.8474 169.999 20.4682 169.999 20.0646V18.7474C169.928 18.8184 169.79 18.8849 169.586 18.947C169.387 19.0047 169.158 19.0557 168.901 19.1C168.644 19.1399 168.393 19.1776 168.15 19.2131C167.906 19.2441 167.702 19.2708 167.538 19.2929C167.152 19.3417 166.799 19.4238 166.48 19.5391C166.165 19.6544 165.912 19.8207 165.721 20.038C165.535 20.2509 165.442 20.5347 165.442 20.8895C165.442 21.3818 165.624 21.7543 165.988 22.0071C166.351 22.2554 166.815 22.3796 167.378 22.3796ZM176.626 10.126V23.75H174.637V10.126H176.626Z" fill="#0F0F0F"/>
<path d="M6.11011 0.400024H29.8101C33.0101 0.400024 35.6101 3.00003 35.6101 6.20003V29.9C35.6101 33.1 33.0101 35.7 29.8101 35.7H6.11011C2.91011 35.7 0.310059 33.1 0.310059 29.9V6.20003C0.310059 3.00003 2.91011 0.400024 6.11011 0.400024Z" fill="#0DA854"/>
<path d="M17.9099 35.6C27.6301 35.6 35.51 27.7202 35.51 18C35.51 8.27981 27.6301 0.400024 17.9099 0.400024C8.1897 0.400024 0.310059 8.27981 0.310059 18C0.310059 27.7202 8.1897 35.6 17.9099 35.6Z" fill="#0DA854"/>
<path d="M10.4099 30.2L12.9099 26.5L9.31006 19.6L14.51 11.2L14.21 19H15.8101L16.6101 27.8L16.1101 30.2H10.4099Z" fill="white"/>
<path d="M25.4099 30.2L22.9099 26.5L26.51 19.6L21.3101 11.2L21.6101 19H20.01L19.21 27.8L19.71 30.2H25.4099Z" fill="white"/>
<path d="M20.01 7.70003C20.01 8.80003 19.11 9.70003 18.01 9.70003C16.91 9.70003 16.01 8.80003 16.01 7.70003C16.01 6.60003 16.91 5.70003 18.01 5.70003C19.11 5.60003 20.01 6.60003 20.01 7.70003Z" fill="#E82F35"/>
</svg>
