<svg width="114" height="21" viewBox="0 0 114 21" fill="none" xmlns="http://www.w3.org/2000/svg">
<g clip-path="url(#clip0_1_1421)">
<path d="M8.85227 10.1454C8.85227 7.45734 10.76 4.72911 13.279 2.77689C11.121 1.10443 8.51625 0 6.26058 0C1.37151 0 0 5.15482 0 10.1454C0 15.1361 1.37151 20.2909 6.26058 20.2909C8.51625 20.2909 11.121 19.1864 13.279 17.5128C10.76 15.5606 8.85227 12.8323 8.85227 10.1442V10.1454Z" fill="#FF645B"/>
<path d="M20.2975 0C18.0418 0 15.437 1.10443 13.2791 2.77811C15.7969 4.73032 17.7058 7.45856 17.7058 10.1467C17.7058 12.8348 15.7981 15.563 13.2791 17.5152C15.437 19.1889 18.0418 20.2933 20.2975 20.2933C25.1865 20.2933 26.5581 15.1385 26.5581 10.1479C26.5581 5.15725 25.1865 0 20.2975 0Z" fill="#FF645B"/>
<path d="M17.7058 10.1455C17.7058 7.45737 15.798 4.72913 13.279 2.77692C10.76 4.72913 8.85229 7.45737 8.85229 10.1455C8.85229 12.8336 10.76 15.5618 13.279 17.514C15.7968 15.5618 17.7058 12.8336 17.7058 10.1455Z" fill="#E8312A"/>
<path d="M36.6817 11.0869C36.8807 12.1341 37.3514 12.9466 38.0926 13.5244C38.8361 14.1022 39.7489 14.3916 40.8368 14.3916C42.3525 14.3916 43.4547 13.8224 44.1422 12.6815L45.8402 13.6655C44.7237 15.4316 43.04 16.3134 40.7903 16.3134C38.9684 16.3134 37.4884 15.732 36.3481 14.5668C35.2077 13.404 34.637 11.931 34.637 10.1503C34.637 8.36957 35.1946 6.91727 36.3123 5.74472C37.43 4.57339 38.8754 3.98712 40.6509 3.98712C42.3346 3.98712 43.7073 4.59286 44.7714 5.80311C45.8355 7.01336 46.3681 8.47053 46.3681 10.1734C46.3681 10.4714 46.3443 10.7755 46.299 11.0881H36.6805L36.6817 11.0869ZM40.6521 5.90893C39.5808 5.90893 38.6931 6.21788 37.9889 6.83456C37.2847 7.45246 36.8485 8.27591 36.6805 9.30736H44.3472C44.1792 8.19807 43.7514 7.35393 43.0615 6.77617C42.3727 6.19842 41.5696 5.90893 40.6509 5.90893H40.6521Z" fill="black"/>
<path d="M53.9216 3.98712C55.2681 3.98712 56.3477 4.42135 57.1592 5.28738C57.9695 6.15463 58.3758 7.33082 58.3758 8.81475V16.0081H56.3799V8.93152C56.3799 7.97791 56.1261 7.24081 55.622 6.71779C55.1168 6.19355 54.4209 5.93326 53.5332 5.93326C52.5382 5.93326 51.7351 6.2495 51.1226 6.882C50.509 7.51449 50.2039 8.48756 50.2039 9.79998V16.0094H48.208V4.2912H50.2039V5.97948C51.0154 4.65124 52.2558 3.98712 53.9228 3.98712H53.9216Z" fill="black"/>
<path d="M70.2212 4.2912H72.1957V15.5155C72.1957 17.2488 71.6213 18.5965 70.4738 19.5586C69.3263 20.5183 67.9489 20.9988 66.3426 20.9988C65.0569 20.9988 63.9475 20.7531 63.0133 20.2605C62.0791 19.7678 61.3761 19.0611 60.9018 18.1404L62.6463 17.132C63.2743 18.4445 64.5219 19.1001 66.3891 19.1001C67.5831 19.1001 68.5196 18.7802 69.2012 18.1404C69.8816 17.4994 70.2224 16.6248 70.2224 15.5155V13.8516C69.2119 15.4134 67.7737 16.1955 65.9065 16.1955C64.2693 16.1955 62.8834 15.6019 61.7514 14.4135C60.6182 13.2264 60.0522 11.7814 60.0522 10.0797C60.0522 8.37809 60.6182 6.93551 61.7514 5.75567C62.8834 4.57583 64.2693 3.98712 65.9065 3.98712C67.788 3.98712 69.2262 4.76071 70.2224 6.30667V4.2912H70.2212ZM63.2183 13.0561C64 13.8528 64.9711 14.2505 66.1341 14.2505C67.2971 14.2505 68.2694 13.8528 69.0499 13.0561C69.8316 12.2582 70.2212 11.2669 70.2212 10.0797C70.2212 8.8926 69.8316 7.92318 69.0499 7.12648C68.2694 6.32978 67.2983 5.93204 66.1341 5.93204C64.9699 5.93204 64 6.32978 63.2183 7.12648C62.4378 7.92318 62.0481 8.90841 62.0481 10.0797C62.0481 11.2511 62.4378 12.2582 63.2183 13.0561Z" fill="black"/>
<path d="M84.2701 4.2912H86.2672V16.0081H84.2701V13.9927C83.2763 15.5386 81.8285 16.3122 79.9315 16.3122C78.3241 16.3122 76.9538 15.715 75.8218 14.5206C74.6886 13.3249 74.1226 11.8677 74.1226 10.1491C74.1226 8.43038 74.6886 6.97443 75.8218 5.77756C76.9538 4.58312 78.3241 3.9859 79.9315 3.9859C81.8285 3.9859 83.2751 4.75949 84.2701 6.30545V4.28998V4.2912ZM80.1853 14.3442C81.3483 14.3442 82.3207 13.9428 83.1011 13.1376C83.8816 12.3336 84.2713 11.3374 84.2713 10.1503C84.2713 8.96314 83.8816 7.96696 83.1011 7.16296C82.3207 6.35897 81.3483 5.95636 80.1853 5.95636C79.0224 5.95636 78.0739 6.35897 77.2922 7.16296C76.5117 7.96696 76.122 8.96435 76.122 10.1503C76.122 11.3362 76.5117 12.3336 77.2922 13.1376C78.0739 13.9428 79.0378 14.3442 80.1853 14.3442Z" fill="black"/>
<path d="M98.3665 4.2912H100.341V15.5155C100.341 17.2488 99.7666 18.5965 98.6191 19.5586C97.4716 20.5183 96.0941 20.9988 94.4879 20.9988C93.2022 20.9988 92.0928 20.7531 91.1586 20.2605C90.2244 19.7678 89.5214 19.0611 89.0471 18.1404L90.7916 17.132C91.4196 18.4445 92.6671 19.1001 94.5344 19.1001C95.7283 19.1001 96.6649 18.7802 97.3465 18.1404C98.0269 17.4994 98.3677 16.6248 98.3677 15.5155V13.8516C97.3572 15.4134 95.919 16.1955 94.0518 16.1955C92.4145 16.1955 91.0287 15.6019 89.8967 14.4135C88.7635 13.2264 88.1975 11.7814 88.1975 10.0797C88.1975 8.37809 88.7635 6.93551 89.8967 5.75567C91.0287 4.57583 92.4145 3.98712 94.0518 3.98712C95.9333 3.98712 97.3715 4.76071 98.3677 6.30667V4.2912H98.3665ZM91.3635 13.0561C92.1452 13.8528 93.1164 14.2505 94.2794 14.2505C95.4423 14.2505 96.4147 13.8528 97.1952 13.0561C97.9768 12.2582 98.3665 11.2669 98.3665 10.0797C98.3665 8.8926 97.9768 7.92318 97.1952 7.12648C96.4147 6.32978 95.4435 5.93204 94.2794 5.93204C93.1152 5.93204 92.1452 6.32978 91.3635 7.12648C90.5831 7.92318 90.1934 8.90841 90.1934 10.0797C90.1934 11.2511 90.5831 12.2582 91.3635 13.0561Z" fill="black"/>
<path d="M104.311 11.0869C104.51 12.1341 104.981 12.9466 105.722 13.5244C106.465 14.1022 107.378 14.3916 108.466 14.3916C109.982 14.3916 111.084 13.8224 111.772 12.6815L113.47 13.6655C112.353 15.4316 110.669 16.3134 108.42 16.3134C106.598 16.3134 105.118 15.732 103.977 14.5668C102.837 13.404 102.266 11.931 102.266 10.1503C102.266 8.36957 102.824 6.91727 103.942 5.74472C105.059 4.57339 106.505 3.98712 108.28 3.98712C109.964 3.98712 111.337 4.59286 112.401 5.80311C113.465 7.01336 113.997 8.47053 113.997 10.1734C113.997 10.4714 113.974 10.7755 113.928 11.0881H104.31L104.311 11.0869ZM108.283 5.90893C107.211 5.90893 106.324 6.21788 105.619 6.83456C104.915 7.45246 104.479 8.27591 104.311 9.30736H111.978C111.81 8.19807 111.382 7.35393 110.692 6.77617C110.003 6.19842 109.2 5.90893 108.281 5.90893H108.283Z" fill="black"/>
</g>
<defs>
<clipPath id="clip0_1_1421">
<rect width="114" height="21" fill="white"/>
</clipPath>
</defs>
</svg>
